<svg xmlns="http://www.w3.org/2000/svg" width="640" height="320" font-family="-apple-system,BlinkMacSystemFont,'Segoe UI',sans-serif">
  <defs>
    <marker id="a" markerWidth="8" markerHeight="6" refX="7" refY="3" orient="auto">
      <polygon points="0 0,8 3,0 6" fill="#9CA3AF"/>
    </marker>
  </defs>

  <!-- Background -->
  <rect width="640" height="320" rx="12" fill="#F9FAFB"/>

  <!-- Title -->
  <text x="320" y="28" text-anchor="middle" font-size="13" font-weight="600" fill="#1F2937">Atlas — Architecture</text>

  <!-- DATA LAYER label -->
  <text x="320" y="52" text-anchor="middle" font-size="9" font-weight="500" fill="#9CA3AF" letter-spacing="2">DATA LAYER</text>

  <!-- LinkedIn box -->
  <rect x="10" y="70" width="120" height="44" rx="8" fill="white" stroke="#E5E7EB"/>
  <rect x="18" y="82" width="28" height="28" rx="6" fill="#0077B5"/>
  <text x="32" y="100" text-anchor="middle" font-size="9" font-weight="700" fill="white">IN</text>
  <text x="57" y="92" font-size="12" font-weight="600" fill="#1F2937">LinkedIn</text>
  <text x="57" y="105" font-size="10" fill="#9CA3AF">profile data · batch ETL</text>

  <!-- Arrow LinkedIn → Supabase -->
  <line x1="130" y1="92" x2="160" y2="92" stroke="#9CA3AF" stroke-width="1.5" marker-end="url(#a)"/>

  <!-- Supabase DB box (taller) -->
  <rect x="160" y="55" width="120" height="88" rx="8" fill="white" stroke="#E5E7EB"/>
  <rect x="168" y="67" width="28" height="28" rx="6" fill="#3ECF8E"/>
  <text x="182" y="85" text-anchor="middle" font-size="9" font-weight="700" fill="white">SB</text>
  <text x="207" y="80" font-size="12" font-weight="600" fill="#1F2937">Supabase</text>
  <rect x="166" y="97" width="106" height="14" rx="3" fill="#F3F4F6"/>
  <text x="219" y="108" text-anchor="middle" font-size="9" fill="#6B7280">profiles</text>
  <rect x="166" y="114" width="106" height="14" rx="3" fill="#F3F4F6"/>
  <text x="219" y="125" text-anchor="middle" font-size="9" fill="#6B7280">expert_companies</text>
  <rect x="166" y="131" width="106" height="8" rx="3" fill="#F3F4F6"/>
  <text x="219" y="138" text-anchor="middle" font-size="9" fill="#6B7280">expert_connections</text>

  <!-- IVFFlat note -->
  <text x="220" y="158" text-anchor="middle" font-size="9" fill="#9CA3AF">IVFFlat + B-tree indexes</text>

  <!-- Arrow Supabase → Schema Cache -->
  <line x1="280" y1="92" x2="310" y2="92" stroke="#9CA3AF" stroke-width="1.5" marker-end="url(#a)"/>

  <!-- Schema Cache box -->
  <rect x="310" y="70" width="130" height="44" rx="8" fill="#F9FAFB" stroke="#E5E7EB"/>
  <rect x="318" y="82" width="28" height="28" rx="6" fill="#374151"/>
  <text x="332" y="100" text-anchor="middle" font-size="9" font-weight="700" fill="white">C</text>
  <text x="357" y="92" font-size="12" font-weight="600" fill="#1F2937">Schema Cache</text>
  <text x="357" y="105" font-size="10" fill="#9CA3AF">1-hour TTL · in-memory</text>

  <!-- Divider line -->
  <line x1="0" y1="168" x2="640" y2="168" stroke="#E5E7EB" stroke-width="1" stroke-dasharray="4,4"/>

  <!-- QUERY LAYER label -->
  <text x="320" y="183" text-anchor="middle" font-size="9" font-weight="500" fill="#9CA3AF" letter-spacing="2">QUERY LAYER</text>

  <!-- Box 1: Slack / UI -->
  <rect x="15" y="195" width="100" height="44" rx="8" fill="white" stroke="#E5E7EB"/>
  <rect x="23" y="207" width="28" height="28" rx="6" fill="#4A154B"/>
  <text x="37" y="225" text-anchor="middle" font-size="9" font-weight="700" fill="white">S</text>
  <text x="60" y="218" font-size="12" font-weight="600" fill="#1F2937">Slack / UI</text>
  <text x="60" y="231" font-size="10" fill="#9CA3AF">natural language</text>

  <!-- Arrow 1→2 -->
  <line x1="115" y1="217" x2="133" y2="217" stroke="#9CA3AF" stroke-width="1.5" marker-end="url(#a)"/>

  <!-- Box 2: OpenRouter -->
  <rect x="133" y="195" width="100" height="44" rx="8" fill="white" stroke="#E5E7EB"/>
  <rect x="141" y="207" width="28" height="28" rx="6" fill="#FF6B35"/>
  <text x="155" y="225" text-anchor="middle" font-size="9" font-weight="700" fill="white">OR</text>
  <text x="178" y="218" font-size="12" font-weight="600" fill="#1F2937">OpenRouter</text>
  <text x="178" y="231" font-size="10" fill="#9CA3AF">gpt-4.1-nano · Groq</text>

  <!-- Arrow 2→3 -->
  <line x1="233" y1="217" x2="251" y2="217" stroke="#9CA3AF" stroke-width="1.5" marker-end="url(#a)"/>

  <!-- Box 3: Hybrid Search -->
  <rect x="251" y="195" width="100" height="44" rx="8" fill="white" stroke="#E5E7EB"/>
  <rect x="259" y="207" width="28" height="28" rx="6" fill="#336791"/>
  <text x="273" y="225" text-anchor="middle" font-size="9" font-weight="700" fill="white">PG</text>
  <text x="296" y="218" font-size="12" font-weight="600" fill="#1F2937">Hybrid Search</text>
  <text x="296" y="231" font-size="10" fill="#9CA3AF">SQL + pgvector</text>

  <!-- Arrow 3→4 -->
  <line x1="351" y1="217" x2="369" y2="217" stroke="#9CA3AF" stroke-width="1.5" marker-end="url(#a)"/>

  <!-- Box 4: LLM Reranker -->
  <rect x="369" y="195" width="100" height="44" rx="8" fill="white" stroke="#E5E7EB"/>
  <rect x="377" y="207" width="28" height="28" rx="6" fill="#D97706"/>
  <text x="391" y="225" text-anchor="middle" font-size="9" font-weight="700" fill="white">LLM</text>
  <text x="414" y="218" font-size="12" font-weight="600" fill="#1F2937">LLM Reranker</text>
  <text x="414" y="231" font-size="10" fill="#9CA3AF">geo hard constraints</text>

  <!-- Arrow 4→5 -->
  <line x1="469" y1="217" x2="487" y2="217" stroke="#9CA3AF" stroke-width="1.5" marker-end="url(#a)"/>

  <!-- Box 5: Results -->
  <rect x="487" y="195" width="138" height="44" rx="8" fill="white" stroke="#E5E7EB"/>
  <rect x="495" y="207" width="28" height="28" rx="6" fill="#16A34A"/>
  <text x="509" y="225" text-anchor="middle" font-size="9" font-weight="700" fill="white">↗</text>
  <text x="534" y="218" font-size="12" font-weight="600" fill="#1F2937">Results</text>
  <text x="534" y="231" font-size="10" fill="#9CA3AF">profiles · force graph</text>

  <!-- Curved arrow from Supabase down to Hybrid Search -->
  <path d="M 220,143 C 220,168 301,168 301,195" fill="none" stroke="#9CA3AF" stroke-width="1.5" marker-end="url(#a)"/>
</svg>
