<svg xmlns="http://www.w3.org/2000/svg" width="500" height="520" font-family="-apple-system,BlinkMacSystemFont,'Segoe UI',sans-serif">
  <defs>
    <marker id="a" markerWidth="8" markerHeight="6" refX="7" refY="3" orient="auto">
      <polygon points="0 0,8 3,0 6" fill="#9CA3AF"/>
    </marker>
  </defs>
  <rect width="500" height="520" rx="12" fill="#F9FAFB"/>
  <text x="250" y="28" text-anchor="middle" font-size="13" font-weight="600" fill="#1F2937">Atlas — Architecture</text>

  <!-- DATA LAYER label -->
  <text x="250" y="46" text-anchor="middle" font-size="9" font-weight="500" fill="#9CA3AF" letter-spacing="2">DATA LAYER</text>

  <!-- LinkedIn -->
  <rect x="10" y="56" width="140" height="52" rx="8" fill="white" stroke="#E5E7EB"/>
  <rect x="18" y="68" width="28" height="28" rx="6" fill="#0077B5"/>
  <text x="32" y="86" text-anchor="middle" font-size="9" font-weight="700" fill="white">IN</text>
  <text x="57" y="80" font-size="12" font-weight="600" fill="#1F2937">LinkedIn</text>
  <text x="57" y="94" font-size="10" fill="#9CA3AF">profile data · ETL</text>

  <!-- Arrow → Supabase -->
  <line x1="150" y1="82" x2="170" y2="82" stroke="#9CA3AF" stroke-width="1.5" marker-end="url(#a)"/>

  <!-- Supabase (taller for tables) -->
  <rect x="170" y="44" width="160" height="90" rx="8" fill="white" stroke="#E5E7EB"/>
  <rect x="178" y="56" width="28" height="28" rx="6" fill="#3ECF8E"/>
  <text x="192" y="74" text-anchor="middle" font-size="9" font-weight="700" fill="white">SB</text>
  <text x="217" y="70" font-size="12" font-weight="600" fill="#1F2937">Supabase</text>
  <rect x="176" y="88" width="146" height="13" rx="3" fill="#F3F4F6"/>
  <text x="249" y="99" text-anchor="middle" font-size="9" fill="#6B7280">profiles</text>
  <rect x="176" y="104" width="146" height="13" rx="3" fill="#F3F4F6"/>
  <text x="249" y="115" text-anchor="middle" font-size="9" fill="#6B7280">expert_companies</text>
  <rect x="176" y="120" width="146" height="10" rx="3" fill="#F3F4F6"/>
  <text x="249" y="129" text-anchor="middle" font-size="9" fill="#6B7280">expert_connections · pgvector</text>

  <!-- Arrow → Schema Cache -->
  <line x1="330" y1="82" x2="350" y2="82" stroke="#9CA3AF" stroke-width="1.5" marker-end="url(#a)"/>

  <!-- Schema Cache -->
  <rect x="350" y="56" width="140" height="52" rx="8" fill="#F9FAFB" stroke="#E5E7EB"/>
  <rect x="358" y="68" width="28" height="28" rx="6" fill="#374151"/>
  <text x="372" y="86" text-anchor="middle" font-size="9" font-weight="700" fill="white">C</text>
  <text x="397" y="80" font-size="12" font-weight="600" fill="#1F2937">Schema Cache</text>
  <text x="397" y="94" font-size="10" fill="#9CA3AF">1-hour TTL</text>

  <!-- Divider -->
  <line x1="0" y1="156" x2="500" y2="156" stroke="#E5E7EB" stroke-width="1" stroke-dasharray="4,4"/>

  <!-- QUERY LAYER label -->
  <text x="250" y="172" text-anchor="middle" font-size="9" font-weight="500" fill="#9CA3AF" letter-spacing="2">QUERY LAYER</text>

  <!-- Slack / UI -->
  <rect x="150" y="182" width="200" height="52" rx="8" fill="white" stroke="#E5E7EB"/>
  <rect x="158" y="194" width="28" height="28" rx="6" fill="#4A154B"/>
  <text x="172" y="212" text-anchor="middle" font-size="9" font-weight="700" fill="white">S</text>
  <text x="197" y="206" font-size="12" font-weight="600" fill="#1F2937">Slack / UI</text>
  <text x="197" y="220" font-size="10" fill="#9CA3AF">natural language query</text>

  <!-- Arrow → OpenRouter -->
  <line x1="250" y1="234" x2="250" y2="260" stroke="#9CA3AF" stroke-width="1.5" marker-end="url(#a)"/>

  <!-- OpenRouter -->
  <rect x="150" y="260" width="200" height="52" rx="8" fill="white" stroke="#E5E7EB"/>
  <rect x="158" y="272" width="28" height="28" rx="6" fill="#FF6B35"/>
  <text x="172" y="290" text-anchor="middle" font-size="9" font-weight="700" fill="white">OR</text>
  <text x="197" y="284" font-size="12" font-weight="600" fill="#1F2937">OpenRouter</text>
  <text x="197" y="298" font-size="10" fill="#9CA3AF">gpt-4.1-nano · Groq llama</text>

  <!-- Arrow → Hybrid Search -->
  <line x1="250" y1="312" x2="250" y2="338" stroke="#9CA3AF" stroke-width="1.5" marker-end="url(#a)"/>

  <!-- Hybrid Search -->
  <rect x="150" y="338" width="200" height="52" rx="8" fill="white" stroke="#E5E7EB"/>
  <rect x="158" y="350" width="28" height="28" rx="6" fill="#336791"/>
  <text x="172" y="368" text-anchor="middle" font-size="9" font-weight="700" fill="white">PG</text>
  <text x="197" y="362" font-size="12" font-weight="600" fill="#1F2937">Hybrid Search</text>
  <text x="197" y="376" font-size="10" fill="#9CA3AF">SQL filter + pgvector</text>

  <!-- Curved arrow from Supabase bottom to Hybrid Search -->
  <path d="M250,134 C250,210 250,280 250,338" fill="none" stroke="#BFDBFE" stroke-width="1.5" stroke-dasharray="4,3" marker-end="url(#a)"/>

  <!-- Arrow → LLM Reranker -->
  <line x1="250" y1="390" x2="250" y2="416" stroke="#9CA3AF" stroke-width="1.5" marker-end="url(#a)"/>

  <!-- LLM Reranker -->
  <rect x="150" y="416" width="200" height="52" rx="8" fill="white" stroke="#E5E7EB"/>
  <rect x="158" y="428" width="28" height="28" rx="6" fill="#D97706"/>
  <text x="172" y="446" text-anchor="middle" font-size="9" font-weight="700" fill="white">LLM</text>
  <text x="197" y="440" font-size="12" font-weight="600" fill="#1F2937">LLM Reranker</text>
  <text x="197" y="454" font-size="10" fill="#9CA3AF">geo constraints · precision</text>

  <!-- Arrow → Results -->
  <line x1="250" y1="468" x2="250" y2="486" stroke="#9CA3AF" stroke-width="1.5" marker-end="url(#a)"/>

  <!-- Results -->
  <rect x="150" y="486" width="200" height="18" rx="6" fill="#F0FDF4" stroke="#BBF7D0"/>
  <text x="250" y="499" text-anchor="middle" font-size="10" font-weight="600" fill="#15803D">profiles · force-directed graph</text>
</svg>
