<svg xmlns="http://www.w3.org/2000/svg" width="640" height="330" font-family="-apple-system,BlinkMacSystemFont,'Segoe UI',sans-serif">
  <defs>
    <marker id="a" markerWidth="8" markerHeight="6" refX="7" refY="3" orient="auto">
      <polygon points="0 0,8 3,0 6" fill="#9CA3AF"/>
    </marker>
  </defs>

  <!-- Background -->
  <rect width="640" height="330" rx="12" fill="#F9FAFB"/>

  <!-- Title -->
  <text x="320" y="28" text-anchor="middle" font-size="13" font-weight="600" fill="#1F2937">Bearing — Research Pipeline</text>

  <!-- Input box -->
  <rect x="10" y="138" width="118" height="52" rx="8" fill="white" stroke="#E5E7EB"/>
  <rect x="18" y="150" width="28" height="28" rx="6" fill="#2D7FF9"/>
  <text x="32" y="168" text-anchor="middle" font-size="9" font-weight="700" fill="white">IN</text>
  <text x="57" y="162" font-size="12" font-weight="600" fill="#1F2937">Airtable · Notion</text>
  <text x="57" y="176" font-size="10" fill="#9CA3AF">deal data, call notes</text>

  <!-- Parallel section background -->
  <rect x="150" y="50" width="162" height="232" rx="8" fill="#F3F4F6" stroke="#E5E7EB"/>
  <text x="231" y="68" text-anchor="middle" font-size="9" font-weight="500" fill="#9CA3AF" letter-spacing="2">PARALLEL</text>

  <!-- Agent 1: Founder Research -->
  <rect x="158" y="76" width="146" height="44" rx="8" fill="white" stroke="#E5E7EB"/>
  <rect x="166" y="88" width="28" height="28" rx="6" fill="#7C3AED"/>
  <text x="180" y="106" text-anchor="middle" font-size="9" font-weight="700" fill="white">ER</text>
  <text x="205" y="100" font-size="12" font-weight="600" fill="#1F2937">Founder Research</text>
  <text x="205" y="113" font-size="10" fill="#9CA3AF">EnrichLayer · Tavily · Neon cache</text>

  <!-- Agent 2: Competitive Research -->
  <rect x="158" y="142" width="146" height="44" rx="8" fill="white" stroke="#E5E7EB"/>
  <rect x="166" y="154" width="28" height="28" rx="6" fill="#EF4444"/>
  <text x="180" y="172" text-anchor="middle" font-size="9" font-weight="700" fill="white">TX</text>
  <text x="205" y="166" font-size="12" font-weight="600" fill="#1F2937">Competitive Research</text>
  <text x="205" y="179" font-size="10" fill="#9CA3AF">Tracxn SEA · Tavily global</text>

  <!-- Agent 3: Problem Validation -->
  <rect x="158" y="208" width="146" height="44" rx="8" fill="white" stroke="#E5E7EB"/>
  <rect x="166" y="220" width="28" height="28" rx="6" fill="#6366F1"/>
  <text x="180" y="238" text-anchor="middle" font-size="9" font-weight="700" fill="white">TV</text>
  <text x="205" y="232" font-size="12" font-weight="600" fill="#1F2937">Problem Validation</text>
  <text x="205" y="245" font-size="10" fill="#9CA3AF">Tavily · news · forums</text>

  <!-- Bus: vertical line at x=316 from y=98 to y=230 -->
  <line x1="316" y1="98" x2="316" y2="230" stroke="#D1D5DB" stroke-width="1.5"/>

  <!-- Short horizontal lines from each agent right edge to bus -->
  <line x1="304" y1="98" x2="316" y2="98" stroke="#D1D5DB" stroke-width="1.5"/>
  <line x1="304" y1="164" x2="316" y2="164" stroke="#D1D5DB" stroke-width="1.5"/>
  <line x1="304" y1="230" x2="316" y2="230" stroke="#D1D5DB" stroke-width="1.5"/>

  <!-- Arrow from bus midpoint to sequential section -->
  <line x1="316" y1="164" x2="348" y2="164" stroke="#9CA3AF" stroke-width="1.5" marker-end="url(#a)"/>

  <!-- Sequential section boxes -->

  <!-- Box 1: Evaluation Rubric -->
  <rect x="348" y="140" width="278" height="44" rx="8" fill="white" stroke="#E5E7EB"/>
  <rect x="356" y="152" width="28" height="28" rx="6" fill="#374151"/>
  <text x="370" y="170" text-anchor="middle" font-size="9" font-weight="700" fill="white">E</text>
  <text x="395" y="164" font-size="12" font-weight="600" fill="#1F2937">Evaluation Rubric</text>
  <text x="395" y="177" font-size="10" fill="#9CA3AF">problem quadrant · evidence tier · SEA fit</text>

  <!-- Box 2: Decision Brief -->
  <rect x="348" y="200" width="278" height="44" rx="8" fill="white" stroke="#E5E7EB"/>
  <rect x="356" y="212" width="28" height="28" rx="6" fill="#D97706"/>
  <text x="370" y="230" text-anchor="middle" font-size="9" font-weight="700" fill="white">C</text>
  <text x="395" y="224" font-size="12" font-weight="600" fill="#1F2937">Decision Brief</text>
  <text x="395" y="237" font-size="10" fill="#9CA3AF">Claude Sonnet 4.6 · extended thinking 8k</text>

  <!-- Box 3: Memo → Notion -->
  <rect x="348" y="260" width="278" height="44" rx="8" fill="white" stroke="#E5E7EB"/>
  <rect x="356" y="272" width="28" height="28" rx="6" fill="#10A37F"/>
  <text x="370" y="290" text-anchor="middle" font-size="9" font-weight="700" fill="white">C</text>
  <text x="395" y="284" font-size="12" font-weight="600" fill="#1F2937">Memo → Notion</text>
  <text x="395" y="297" font-size="10" fill="#9CA3AF">7 sections · structured output · Claude Sonnet</text>

  <!-- Sequential arrows -->
  <line x1="487" y1="184" x2="487" y2="200" stroke="#9CA3AF" stroke-width="1.5" marker-end="url(#a)"/>
  <line x1="487" y1="244" x2="487" y2="260" stroke="#9CA3AF" stroke-width="1.5" marker-end="url(#a)"/>

  <!-- Arrows from input to agents -->
  <!-- Input → Agent 1 (diagonal up) -->
  <line x1="128" y1="154" x2="158" y2="98" stroke="#9CA3AF" stroke-width="1.5" marker-end="url(#a)"/>
  <!-- Input → Agent 2 (horizontal) -->
  <line x1="128" y1="164" x2="158" y2="164" stroke="#9CA3AF" stroke-width="1.5" marker-end="url(#a)"/>
  <!-- Input → Agent 3 (diagonal down) -->
  <line x1="128" y1="174" x2="158" y2="230" stroke="#9CA3AF" stroke-width="1.5" marker-end="url(#a)"/>
</svg>
