<svg xmlns="http://www.w3.org/2000/svg" width="500" height="540" font-family="-apple-system,BlinkMacSystemFont,'Segoe UI',sans-serif">
  <defs>
    <marker id="a" markerWidth="8" markerHeight="6" refX="7" refY="3" orient="auto">
      <polygon points="0 0,8 3,0 6" fill="#9CA3AF"/>
    </marker>
  </defs>
  <rect width="500" height="540" rx="12" fill="#F9FAFB"/>
  <text x="250" y="28" text-anchor="middle" font-size="13" font-weight="600" fill="#1F2937">Bearing — Research Pipeline</text>

  <!-- Input -->
  <rect x="150" y="46" width="200" height="52" rx="8" fill="white" stroke="#E5E7EB"/>
  <rect x="158" y="58" width="28" height="28" rx="6" fill="#2D7FF9"/>
  <text x="172" y="76" text-anchor="middle" font-size="9" font-weight="700" fill="white">IN</text>
  <text x="197" y="68" font-size="12" font-weight="600" fill="#1F2937">Airtable · Notion</text>
  <text x="197" y="83" font-size="10" fill="#9CA3AF">deal data · call notes</text>

  <!-- Fan-out arrows from input bottom center (250,98) to 3 agents -->
  <path d="M250,98 C250,118 95,110 95,138" fill="none" stroke="#9CA3AF" stroke-width="1.5" marker-end="url(#a)"/>
  <line x1="250" y1="98" x2="250" y2="138" stroke="#9CA3AF" stroke-width="1.5" marker-end="url(#a)"/>
  <path d="M250,98 C250,118 405,110 405,138" fill="none" stroke="#9CA3AF" stroke-width="1.5" marker-end="url(#a)"/>

  <!-- Parallel region -->
  <rect x="10" y="114" width="480" height="162" rx="8" fill="#F3F4F6" stroke="#E5E7EB"/>
  <text x="250" y="132" text-anchor="middle" font-size="9" font-weight="500" fill="#9CA3AF" letter-spacing="2">PARALLEL</text>

  <!-- Agent 1: Founder Research -->
  <rect x="22" y="138" width="146" height="52" rx="8" fill="white" stroke="#E5E7EB"/>
  <rect x="30" y="150" width="28" height="28" rx="6" fill="#7C3AED"/>
  <text x="44" y="168" text-anchor="middle" font-size="9" font-weight="700" fill="white">ER</text>
  <text x="69" y="160" font-size="11" font-weight="600" fill="#1F2937">Founder Research</text>
  <text x="69" y="174" font-size="9" fill="#9CA3AF">EnrichLayer · Tavily</text>

  <!-- Agent 2: Competitive Research -->
  <rect x="177" y="138" width="146" height="52" rx="8" fill="white" stroke="#E5E7EB"/>
  <rect x="185" y="150" width="28" height="28" rx="6" fill="#EF4444"/>
  <text x="199" y="168" text-anchor="middle" font-size="9" font-weight="700" fill="white">TX</text>
  <text x="224" y="160" font-size="11" font-weight="600" fill="#1F2937">Competitive</text>
  <text x="224" y="174" font-size="9" fill="#9CA3AF">Tracxn SEA · Tavily</text>

  <!-- Agent 3: Problem Validation -->
  <rect x="332" y="138" width="146" height="52" rx="8" fill="white" stroke="#E5E7EB"/>
  <rect x="340" y="150" width="28" height="28" rx="6" fill="#6366F1"/>
  <text x="354" y="168" text-anchor="middle" font-size="9" font-weight="700" fill="white">TV</text>
  <text x="379" y="160" font-size="11" font-weight="600" fill="#1F2937">Problem Valid.</text>
  <text x="379" y="174" font-size="9" fill="#9CA3AF">Tavily · news · forums</text>

  <!-- Convergence: 3 vertical lines from agent bottoms (y=190) down to bus at y=270 -->
  <line x1="95" y1="190" x2="95" y2="270" stroke="#D1D5DB" stroke-width="1.5"/>
  <line x1="250" y1="190" x2="250" y2="270" stroke="#D1D5DB" stroke-width="1.5"/>
  <line x1="405" y1="190" x2="405" y2="270" stroke="#D1D5DB" stroke-width="1.5"/>
  <!-- Horizontal bus -->
  <line x1="95" y1="270" x2="405" y2="270" stroke="#D1D5DB" stroke-width="1.5"/>
  <!-- Arrow from bus center down -->
  <line x1="250" y1="270" x2="250" y2="298" stroke="#9CA3AF" stroke-width="1.5" marker-end="url(#a)"/>

  <!-- Evaluation Rubric -->
  <rect x="90" y="298" width="320" height="52" rx="8" fill="white" stroke="#E5E7EB"/>
  <rect x="98" y="310" width="28" height="28" rx="6" fill="#374151"/>
  <text x="112" y="328" text-anchor="middle" font-size="9" font-weight="700" fill="white">E</text>
  <text x="137" y="322" font-size="12" font-weight="600" fill="#1F2937">Evaluation Rubric</text>
  <text x="137" y="336" font-size="10" fill="#9CA3AF">problem quadrant · evidence tier · SEA fit</text>

  <!-- Arrow → Decision Brief -->
  <line x1="250" y1="350" x2="250" y2="378" stroke="#9CA3AF" stroke-width="1.5" marker-end="url(#a)"/>

  <!-- Decision Brief -->
  <rect x="90" y="378" width="320" height="52" rx="8" fill="white" stroke="#E5E7EB"/>
  <rect x="98" y="390" width="28" height="28" rx="6" fill="#D97706"/>
  <text x="112" y="408" text-anchor="middle" font-size="9" font-weight="700" fill="white">C</text>
  <text x="137" y="402" font-size="12" font-weight="600" fill="#1F2937">Decision Brief</text>
  <text x="137" y="416" font-size="10" fill="#9CA3AF">Claude Sonnet 4.6 · extended thinking 8k</text>

  <!-- Arrow → Memo -->
  <line x1="250" y1="430" x2="250" y2="458" stroke="#9CA3AF" stroke-width="1.5" marker-end="url(#a)"/>

  <!-- Memo → Notion -->
  <rect x="90" y="458" width="320" height="52" rx="8" fill="white" stroke="#E5E7EB"/>
  <rect x="98" y="470" width="28" height="28" rx="6" fill="#10A37F"/>
  <text x="112" y="488" text-anchor="middle" font-size="9" font-weight="700" fill="white">N</text>
  <text x="137" y="482" font-size="12" font-weight="600" fill="#1F2937">Memo → Notion</text>
  <text x="137" y="496" font-size="10" fill="#9CA3AF">7 sections · structured output · Claude Sonnet</text>
</svg>
