<svg xmlns="http://www.w3.org/2000/svg" width="640" height="360" font-family="-apple-system,BlinkMacSystemFont,'Segoe UI',sans-serif">
  <defs>
    <marker id="a" markerWidth="8" markerHeight="6" refX="7" refY="3" orient="auto">
      <polygon points="0 0,8 3,0 6" fill="#9CA3AF"/>
    </marker>
  </defs>

  <!-- Background -->
  <rect width="640" height="360" rx="12" fill="#F9FAFB"/>

  <!-- Title -->
  <text x="320" y="26" text-anchor="middle" font-size="13" font-weight="600" fill="#1F2937">Compass — Slack Archive &amp; AI Pipeline</text>

  <!-- Slack source box -->
  <rect x="10" y="156" width="110" height="52" rx="8" fill="white" stroke="#E5E7EB"/>
  <rect x="18" y="168" width="28" height="28" rx="6" fill="#4A154B"/>
  <text x="32" y="186" text-anchor="middle" font-size="9" font-weight="700" fill="white">#</text>
  <text x="57" y="180" font-size="12" font-weight="600" fill="#1F2937">Slack</text>
  <text x="57" y="193" font-size="10" fill="#9CA3AF">workspace messages</text>

  <!-- Arrow Slack → Backup pipeline -->
  <line x1="120" y1="182" x2="138" y2="182" stroke="#9CA3AF" stroke-width="1.5" marker-end="url(#a)"/>

  <!-- Backup pipeline box (process) -->
  <rect x="138" y="90" width="118" height="164" rx="8" fill="#F3F4F6" stroke="#E5E7EB"/>
  <text x="197" y="110" text-anchor="middle" font-size="9" font-weight="500" fill="#9CA3AF">node-cron</text>
  <text x="197" y="126" text-anchor="middle" font-size="9" fill="#6B7280">1. users</text>
  <text x="197" y="140" text-anchor="middle" font-size="9" fill="#6B7280">2. channels</text>
  <text x="197" y="154" text-anchor="middle" font-size="9" fill="#6B7280">3. messages + files</text>
  <text x="197" y="168" text-anchor="middle" font-size="9" fill="#6B7280">4. finalize</text>
  <text x="197" y="182" text-anchor="middle" font-size="9" fill="#6B7280">5. embed</text>
  <!-- Step dots for visual flair -->
  <circle cx="152" cy="123" r="2" fill="#9CA3AF"/>
  <circle cx="152" cy="137" r="2" fill="#9CA3AF"/>
  <circle cx="152" cy="151" r="2" fill="#9CA3AF"/>
  <circle cx="152" cy="165" r="2" fill="#9CA3AF"/>
  <circle cx="152" cy="179" r="2" fill="#9CA3AF"/>

  <!-- Arrow Backup pipeline → Neon -->
  <line x1="256" y1="182" x2="278" y2="182" stroke="#9CA3AF" stroke-width="1.5" marker-end="url(#a)"/>

  <!-- Neon DB box -->
  <rect x="278" y="156" width="110" height="52" rx="8" fill="white" stroke="#E5E7EB"/>
  <rect x="286" y="168" width="28" height="28" rx="6" fill="#00C2A8"/>
  <text x="300" y="186" text-anchor="middle" font-size="9" font-weight="700" fill="white">N</text>
  <text x="325" y="180" font-size="12" font-weight="600" fill="#1F2937">Neon DB</text>
  <text x="325" y="193" font-size="10" fill="#9CA3AF">pgvector · 1536d</text>

  <!-- Arrow Neon → Deepseek (Bible pipeline, up-right) -->
  <path d="M388,172 C408,172 408,92 420,92" fill="none" stroke="#9CA3AF" stroke-width="1.5" marker-end="url(#a)"/>

  <!-- Deepseek box -->
  <rect x="420" y="70" width="200" height="44" rx="8" fill="white" stroke="#E5E7EB"/>
  <rect x="428" y="82" width="28" height="28" rx="6" fill="#00C2A8"/>
  <text x="442" y="100" text-anchor="middle" font-size="9" font-weight="700" fill="white">DS</text>
  <text x="467" y="92" font-size="12" font-weight="600" fill="#1F2937">Deepseek Chat</text>
  <text x="467" y="105" font-size="10" fill="#9CA3AF">classify · discover topics</text>

  <!-- Arrow Deepseek → Gemini -->
  <line x1="520" y1="114" x2="520" y2="126" stroke="#9CA3AF" stroke-width="1.5" marker-end="url(#a)"/>

  <!-- Gemini box -->
  <rect x="420" y="126" width="200" height="44" rx="8" fill="white" stroke="#E5E7EB"/>
  <rect x="428" y="138" width="28" height="28" rx="6" fill="#1A73E8"/>
  <text x="442" y="156" text-anchor="middle" font-size="9" font-weight="700" fill="white">G</text>
  <text x="467" y="148" font-size="12" font-weight="600" fill="#1F2937">Gemini 2.5 Pro</text>
  <text x="467" y="161" font-size="10" fill="#9CA3AF">synthesize · 1M context window</text>

  <!-- Vertical bus from Neon to consumers: draw bus at x=408, Neon right=388, bus from y=219 to y=319 -->
  <path d="M388,192 C408,192 408,219 408,219" fill="none" stroke="#9CA3AF" stroke-width="1.5"/>
  <line x1="408" y1="219" x2="408" y2="319" stroke="#9CA3AF" stroke-width="1.5"/>

  <!-- Bus arms to each consumer -->
  <line x1="408" y1="219" x2="420" y2="219" stroke="#9CA3AF" stroke-width="1.5" marker-end="url(#a)"/>
  <line x1="408" y1="269" x2="420" y2="269" stroke="#9CA3AF" stroke-width="1.5" marker-end="url(#a)"/>
  <line x1="408" y1="319" x2="420" y2="319" stroke="#9CA3AF" stroke-width="1.5" marker-end="url(#a)"/>

  <!-- Ask Panel box -->
  <rect x="420" y="200" width="200" height="38" rx="8" fill="#F0F9FF" stroke="#BAE6FD"/>
  <rect x="428" y="210" width="28" height="18" rx="4" fill="#374151"/>
  <text x="442" y="223" text-anchor="middle" font-size="9" font-weight="700" fill="white">Q</text>
  <text x="467" y="222" font-size="12" font-weight="600" fill="#0369A1">Ask Panel</text>
  <text x="467" y="234" font-size="10" fill="#0EA5E9">SSE streaming · FTS + pgvector</text>

  <!-- Auto-Reply box -->
  <rect x="420" y="250" width="200" height="38" rx="8" fill="#FFFBEB" stroke="#FDE68A"/>
  <rect x="428" y="260" width="28" height="18" rx="4" fill="#D97706"/>
  <text x="442" y="273" text-anchor="middle" font-size="9" font-weight="700" fill="white">AR</text>
  <text x="467" y="272" font-size="12" font-weight="600" fill="#92400E">Auto-Reply</text>
  <text x="467" y="284" font-size="10" fill="#D97706">haiku classifier → gpt-4.1</text>

  <!-- Community Bot box -->
  <rect x="420" y="300" width="200" height="38" rx="8" fill="white" stroke="#E5E7EB"/>
  <rect x="428" y="310" width="28" height="18" rx="4" fill="#4A154B"/>
  <text x="442" y="323" text-anchor="middle" font-size="9" font-weight="700" fill="white">CB</text>
  <text x="467" y="322" font-size="12" font-weight="600" fill="#1F2937">Community Bot</text>
  <text x="467" y="334" font-size="10" fill="#9CA3AF">scheduled digests · alerts</text>
</svg>
