<svg xmlns="http://www.w3.org/2000/svg" width="500" height="530" font-family="-apple-system,BlinkMacSystemFont,'Segoe UI',sans-serif">
  <defs>
    <marker id="a" markerWidth="8" markerHeight="6" refX="7" refY="3" orient="auto">
      <polygon points="0 0,8 3,0 6" fill="#9CA3AF"/>
    </marker>
  </defs>
  <rect width="500" height="530" rx="12" fill="#F9FAFB"/>
  <text x="250" y="28" text-anchor="middle" font-size="13" font-weight="600" fill="#1F2937">Compass — Slack Archive &amp; AI Pipeline</text>

  <!-- Slack -->
  <rect x="150" y="46" width="200" height="52" rx="8" fill="white" stroke="#E5E7EB"/>
  <rect x="158" y="58" width="28" height="28" rx="6" fill="#4A154B"/>
  <text x="172" y="76" text-anchor="middle" font-size="9" font-weight="700" fill="white">#</text>
  <text x="197" y="70" font-size="12" font-weight="600" fill="#1F2937">Slack</text>
  <text x="197" y="84" font-size="10" fill="#9CA3AF">workspace messages</text>

  <!-- Arrow → Backup Pipeline -->
  <line x1="250" y1="98" x2="250" y2="118" stroke="#9CA3AF" stroke-width="1.5" marker-end="url(#a)"/>

  <!-- Backup Pipeline process box -->
  <rect x="100" y="118" width="300" height="134" rx="8" fill="#F3F4F6" stroke="#E5E7EB"/>
  <text x="250" y="136" text-anchor="middle" font-size="9" font-weight="500" fill="#9CA3AF" letter-spacing="2">node-cron</text>
  <circle cx="120" cy="153" r="2.5" fill="#9CA3AF"/>
  <text x="130" y="157" font-size="10" fill="#6B7280">1. users</text>
  <circle cx="120" cy="172" r="2.5" fill="#9CA3AF"/>
  <text x="130" y="176" font-size="10" fill="#6B7280">2. channels</text>
  <circle cx="120" cy="191" r="2.5" fill="#9CA3AF"/>
  <text x="130" y="195" font-size="10" fill="#6B7280">3. messages + files</text>
  <circle cx="120" cy="210" r="2.5" fill="#9CA3AF"/>
  <text x="130" y="214" font-size="10" fill="#6B7280">4. finalize</text>
  <circle cx="120" cy="229" r="2.5" fill="#9CA3AF"/>
  <text x="130" y="233" font-size="10" fill="#6B7280">5. embed (text-embedding-3-small)</text>

  <!-- Arrow → Neon DB -->
  <line x1="250" y1="252" x2="250" y2="272" stroke="#9CA3AF" stroke-width="1.5" marker-end="url(#a)"/>

  <!-- Neon DB -->
  <rect x="150" y="272" width="200" height="52" rx="8" fill="white" stroke="#E5E7EB"/>
  <rect x="158" y="284" width="28" height="28" rx="6" fill="#00C2A8"/>
  <text x="172" y="302" text-anchor="middle" font-size="9" font-weight="700" fill="white">N</text>
  <text x="197" y="296" font-size="12" font-weight="600" fill="#1F2937">Neon DB</text>
  <text x="197" y="310" font-size="10" fill="#9CA3AF">PostgreSQL · pgvector · 1536d</text>

  <!-- Split: Neon bottom (250, 324) → Bible (left) and Consumers (right) -->
  <path d="M250,324 C250,350 110,345 110,368" fill="none" stroke="#9CA3AF" stroke-width="1.5" marker-end="url(#a)"/>
  <path d="M250,324 C250,350 390,345 390,368" fill="none" stroke="#9CA3AF" stroke-width="1.5" marker-end="url(#a)"/>

  <!-- LEFT: Bible Pipeline label -->
  <text x="110" y="360" text-anchor="middle" font-size="8" font-weight="500" fill="#9CA3AF" letter-spacing="1">BIBLE</text>

  <!-- Deepseek Chat -->
  <rect x="20" y="368" width="180" height="44" rx="8" fill="white" stroke="#E5E7EB"/>
  <rect x="28" y="380" width="28" height="28" rx="6" fill="#00C2A8"/>
  <text x="42" y="398" text-anchor="middle" font-size="9" font-weight="700" fill="white">DS</text>
  <text x="67" y="392" font-size="11" font-weight="600" fill="#1F2937">Deepseek Chat</text>
  <text x="67" y="405" font-size="9" fill="#9CA3AF">classify · topics</text>

  <!-- Arrow Deepseek → Gemini -->
  <line x1="110" y1="412" x2="110" y2="432" stroke="#9CA3AF" stroke-width="1.5" marker-end="url(#a)"/>

  <!-- Gemini 2.5 Pro -->
  <rect x="20" y="432" width="180" height="44" rx="8" fill="white" stroke="#E5E7EB"/>
  <rect x="28" y="444" width="28" height="28" rx="6" fill="#1A73E8"/>
  <text x="42" y="462" text-anchor="middle" font-size="9" font-weight="700" fill="white">G</text>
  <text x="67" y="456" font-size="11" font-weight="600" fill="#1F2937">Gemini 2.5 Pro</text>
  <text x="67" y="469" font-size="9" fill="#9CA3AF">synthesize · 1M ctx</text>

  <!-- RIGHT: Consumers label -->
  <text x="390" y="360" text-anchor="middle" font-size="8" font-weight="500" fill="#9CA3AF" letter-spacing="1">CONSUMERS</text>

  <!-- Ask Panel -->
  <rect x="300" y="368" width="185" height="38" rx="8" fill="#F0F9FF" stroke="#BAE6FD"/>
  <rect x="308" y="378" width="28" height="18" rx="4" fill="#374151"/>
  <text x="322" y="391" text-anchor="middle" font-size="9" font-weight="700" fill="white">Q</text>
  <text x="347" y="391" font-size="11" font-weight="600" fill="#0369A1">Ask Panel</text>
  <text x="347" y="402" font-size="9" fill="#0EA5E9">SSE · FTS + pgvector</text>

  <!-- Arrow → Auto-Reply -->
  <line x1="392" y1="406" x2="392" y2="420" stroke="#9CA3AF" stroke-width="1.5" marker-end="url(#a)"/>

  <!-- Auto-Reply -->
  <rect x="300" y="420" width="185" height="38" rx="8" fill="#FFFBEB" stroke="#FDE68A"/>
  <rect x="308" y="430" width="28" height="18" rx="4" fill="#D97706"/>
  <text x="322" y="443" text-anchor="middle" font-size="9" font-weight="700" fill="white">AR</text>
  <text x="347" y="443" font-size="11" font-weight="600" fill="#92400E">Auto-Reply</text>
  <text x="347" y="454" font-size="9" fill="#D97706">haiku classify → gpt-4.1</text>

  <!-- Arrow → Community Bot -->
  <line x1="392" y1="458" x2="392" y2="472" stroke="#9CA3AF" stroke-width="1.5" marker-end="url(#a)"/>

  <!-- Community Bot -->
  <rect x="300" y="472" width="185" height="38" rx="8" fill="white" stroke="#E5E7EB"/>
  <rect x="308" y="482" width="28" height="18" rx="4" fill="#4A154B"/>
  <text x="322" y="495" text-anchor="middle" font-size="9" font-weight="700" fill="white">CB</text>
  <text x="347" y="495" font-size="11" font-weight="600" fill="#1F2937">Community Bot</text>
  <text x="347" y="506" font-size="9" fill="#9CA3AF">pgvector gate · archive only</text>
</svg>
