<svg xmlns="http://www.w3.org/2000/svg" width="500" height="440" font-family="-apple-system,BlinkMacSystemFont,'Segoe UI',sans-serif">
  <defs>
    <marker id="a" markerWidth="8" markerHeight="6" refX="7" refY="3" orient="auto">
      <polygon points="0 0,8 3,0 6" fill="#9CA3AF"/>
    </marker>
  </defs>
  <rect width="500" height="440" rx="12" fill="#F9FAFB"/>
  <text x="250" y="28" text-anchor="middle" font-size="13" font-weight="600" fill="#1F2937">Vox — Call Pipeline</text>

  <!-- Founder -->
  <rect x="150" y="46" width="200" height="52" rx="8" fill="white" stroke="#E5E7EB"/>
  <rect x="158" y="58" width="28" height="28" rx="6" fill="#374151"/>
  <text x="172" y="76" text-anchor="middle" font-size="9" font-weight="700" fill="white">F</text>
  <text x="197" y="70" font-size="12" font-weight="600" fill="#1F2937">Founder</text>
  <text x="197" y="84" font-size="10" fill="#9CA3AF">shareable link</text>

  <!-- Arrow down -->
  <line x1="250" y1="98" x2="250" y2="118" stroke="#9CA3AF" stroke-width="1.5" marker-end="url(#a)"/>

  <!-- ElevenLabs -->
  <rect x="150" y="118" width="200" height="52" rx="8" fill="white" stroke="#E5E7EB"/>
  <rect x="158" y="130" width="28" height="28" rx="6" fill="#1E40AF"/>
  <text x="172" y="148" text-anchor="middle" font-size="9" font-weight="700" fill="white">EL</text>
  <text x="197" y="142" font-size="12" font-weight="600" fill="#1F2937">ElevenLabs</text>
  <text x="197" y="156" font-size="10" fill="#9CA3AF">voice agent · voice-cloned</text>

  <!-- Airtable satellite (right) -->
  <rect x="363" y="126" width="127" height="44" rx="8" fill="#EFF6FF" stroke="#BFDBFE"/>
  <rect x="371" y="138" width="28" height="28" rx="6" fill="#2D7FF9"/>
  <text x="385" y="156" text-anchor="middle" font-size="9" font-weight="700" fill="white">AT</text>
  <text x="409" y="150" font-size="11" font-weight="600" fill="#1E40AF">Airtable</text>
  <text x="409" y="163" font-size="9" fill="#3B82F6">fetch_application</text>

  <!-- Bidirectional EL ↔ Airtable -->
  <line x1="350" y1="141" x2="363" y2="141" stroke="#9CA3AF" stroke-width="1.5" marker-end="url(#a)"/>
  <line x1="363" y1="155" x2="350" y2="155" stroke="#9CA3AF" stroke-width="1.5" marker-end="url(#a)"/>
  <text x="356" y="136" text-anchor="middle" font-size="8" fill="#6B7280">tool calls</text>

  <!-- Arrow ElevenLabs → GPT-4o with webhook label -->
  <line x1="250" y1="170" x2="250" y2="198" stroke="#9CA3AF" stroke-width="1.5" marker-end="url(#a)"/>
  <text x="258" y="188" font-size="9" fill="#6B7280">webhook</text>

  <!-- GPT-4o -->
  <rect x="150" y="198" width="200" height="52" rx="8" fill="white" stroke="#E5E7EB"/>
  <rect x="158" y="210" width="28" height="28" rx="6" fill="#10A37F"/>
  <text x="172" y="228" text-anchor="middle" font-size="9" font-weight="700" fill="white">GPT</text>
  <text x="197" y="222" font-size="12" font-weight="600" fill="#1F2937">GPT-4o</text>
  <text x="197" y="236" font-size="10" fill="#9CA3AF">rubric scoring · Zod validate</text>

  <!-- Arrow GPT → Turso -->
  <line x1="250" y1="250" x2="250" y2="278" stroke="#9CA3AF" stroke-width="1.5" marker-end="url(#a)"/>

  <!-- Turso -->
  <rect x="150" y="278" width="200" height="52" rx="8" fill="white" stroke="#E5E7EB"/>
  <rect x="158" y="290" width="28" height="28" rx="6" fill="#4F3CDB"/>
  <text x="172" y="308" text-anchor="middle" font-size="9" font-weight="700" fill="white">T</text>
  <text x="197" y="302" font-size="12" font-weight="600" fill="#1F2937">Turso</text>
  <text x="197" y="316" font-size="10" fill="#9CA3AF">eval storage</text>

  <!-- Arrow Turso → Admin Panel -->
  <line x1="250" y1="330" x2="250" y2="358" stroke="#9CA3AF" stroke-width="1.5" marker-end="url(#a)"/>

  <!-- Admin Panel -->
  <rect x="150" y="358" width="200" height="52" rx="8" fill="#F0FDF4" stroke="#BBF7D0"/>
  <rect x="158" y="370" width="28" height="28" rx="6" fill="#16A34A"/>
  <text x="172" y="388" text-anchor="middle" font-size="9" font-weight="700" fill="white">A</text>
  <text x="197" y="382" font-size="12" font-weight="600" fill="#15803D">Admin Panel</text>
  <text x="197" y="396" font-size="10" fill="#16A34A">scores · transcripts</text>
</svg>
